<svg width="18" height="18" viewBox="0 0 18 18" fill="none" xmlns="http://www.w3.org/2000/svg">
<path d="M8.99982 6.74999V9.74999M8.99982 12.75H9.00732M7.9613 2.91878L1.79264 13.5737C1.45049 14.1647 1.27941 14.4602 1.30469 14.7028C1.32675 14.9143 1.43758 15.1065 1.60959 15.2316C1.80681 15.375 2.14826 15.375 2.83115 15.375H15.1685C15.8514 15.375 16.1928 15.375 16.39 15.2316C16.5621 15.1065 16.6729 14.9143 16.6949 14.7028C16.7202 14.4602 16.5491 14.1647 16.207 13.5737L10.0383 2.91878C9.6974 2.32991 9.52694 2.03547 9.30454 1.93658C9.11055 1.85032 8.88908 1.85032 8.69509 1.93658C8.47269 2.03547 8.30223 2.32991 7.9613 2.91878Z" stroke="#FF0000" stroke-width="1.2" stroke-linecap="round" stroke-linejoin="round"/>
</svg>
