<svg width="28" height="28" viewBox="0 0 28 28" fill="none" xmlns="http://www.w3.org/2000/svg">
<path d="M25.375 14.0002C25.375 14.5084 25.1731 14.9958 24.8137 15.3552C24.4544 15.7146 23.967 15.9165 23.4587 15.9165H17.3192L14 10.1666L17.0695 4.85063C17.1953 4.63263 17.3628 4.44154 17.5625 4.28828C17.7621 4.13502 17.99 4.0226 18.2331 3.95743C18.4762 3.89226 18.7298 3.87563 18.9794 3.90848C19.2289 3.94133 19.4695 4.02302 19.6875 4.14888C19.9055 4.27468 20.0966 4.44219 20.2499 4.64185C20.4031 4.8415 20.5155 5.0694 20.5807 5.31251C20.6459 5.55563 20.6625 5.8092 20.6297 6.05874C20.5968 6.30829 20.5151 6.54892 20.3892 6.76688L17.3197 12.084H23.4587C23.967 12.084 24.4544 12.2859 24.8137 12.6452C25.1731 13.0046 25.375 13.492 25.375 14.0002Z" stroke="black" stroke-linecap="round" stroke-linejoin="round"/>
<path d="M19.6875 23.8512C19.4696 23.9771 19.229 24.0588 18.9795 24.0917C18.73 24.1246 18.4764 24.108 18.2333 24.0429C17.9902 23.9778 17.7623 23.8654 17.5626 23.7122C17.3629 23.559 17.1954 23.368 17.0695 23.15L14 17.8335L10.9305 23.15C10.8047 23.368 10.6372 23.559 10.4375 23.7122C10.2378 23.8654 10.0099 23.9778 9.76679 24.0429C9.52367 24.108 9.27012 24.1246 9.0206 24.0917C8.77108 24.0588 8.53048 23.9771 8.31255 23.8512C8.09454 23.7254 7.90345 23.5579 7.75019 23.3582C7.59693 23.1586 7.48451 22.9307 7.41934 22.6876C7.35418 22.4445 7.33754 22.1909 7.37039 21.9413C7.40324 21.6918 7.48493 21.4512 7.6108 21.2332L10.6797 15.9161H17.3192L20.3887 21.2332C20.5146 21.4511 20.5963 21.6917 20.6292 21.9413C20.6621 22.1908 20.6455 22.4443 20.5804 22.6874C20.5153 22.9306 20.4029 23.1585 20.2497 23.3581C20.0965 23.5578 19.9055 23.7254 19.6875 23.8512ZM14 10.1662L12.88 12.1058L10.6803 12.0836L7.6108 6.76654C7.48493 6.54857 7.40324 6.30795 7.37039 6.0584C7.33754 5.80886 7.35418 5.55529 7.41934 5.31217C7.48451 5.06906 7.59693 4.84116 7.75019 4.6415C7.90345 4.44184 8.09454 4.27433 8.31255 4.14854C8.53048 4.02265 8.77108 3.94093 9.0206 3.90804C9.27012 3.87514 9.52367 3.89173 9.76679 3.95684C10.0099 4.02195 10.2378 4.13431 10.4375 4.28751C10.6372 4.44071 10.8047 4.63175 10.9305 4.84971L14 10.1662Z" stroke="black" stroke-linecap="round" stroke-linejoin="round"/>
<path d="M10.6802 15.9164L12.88 12.1061L4.54125 12.0839C4.03303 12.0839 3.54562 12.2858 3.18626 12.6452C2.82689 13.0045 2.625 13.492 2.625 14.0002C2.625 14.5084 2.82689 14.9958 3.18626 15.3552C3.54562 15.7145 4.03303 15.9164 4.54125 15.9164H10.6802ZM10.6802 15.9164L14 10.1665L17.3197 15.9164H10.6802Z" stroke="black" stroke-linecap="round" stroke-linejoin="round"/>
</svg>
