<svg width="18" height="18" viewBox="0 0 18 18" fill="none" xmlns="http://www.w3.org/2000/svg">
<path d="M13.7461 16.8747C13.0599 16.8747 12.0959 16.6265 10.6524 15.82C8.89702 14.8356 7.53928 13.9268 5.79342 12.1855C4.11014 10.5033 3.291 9.41417 2.14456 7.32799C0.849402 4.97253 1.07018 3.73784 1.31698 3.21014C1.61089 2.57944 2.04471 2.20221 2.60546 1.8278C2.92395 1.61912 3.261 1.44024 3.61233 1.29342C3.64749 1.27831 3.68018 1.26389 3.70936 1.25088C3.88339 1.17249 4.14706 1.05401 4.48104 1.18057C4.70393 1.26424 4.90292 1.43546 5.2144 1.74307C5.85319 2.37307 6.72612 3.77616 7.04815 4.46522C7.26436 4.92963 7.40745 5.2362 7.4078 5.58003C7.4078 5.98256 7.2053 6.29299 6.95956 6.62803C6.9135 6.69096 6.8678 6.75108 6.8235 6.80944C6.55596 7.161 6.49725 7.2626 6.53593 7.44401C6.61432 7.80858 7.19897 8.89385 8.15979 9.85256C9.12061 10.8113 10.1746 11.359 10.5406 11.4371C10.7297 11.4775 10.8334 11.4163 11.1962 11.1393C11.2483 11.0996 11.3017 11.0584 11.3576 11.0173C11.7324 10.7385 12.0284 10.5413 12.4214 10.5413H12.4235C12.7656 10.5413 13.0585 10.6896 13.5436 10.9343C14.1764 11.2535 15.6217 12.1152 16.2556 12.7547C16.5639 13.0655 16.7358 13.2638 16.8198 13.4863C16.9464 13.8214 16.8272 14.084 16.7495 14.2598C16.7365 14.2889 16.7221 14.3209 16.707 14.3564C16.559 14.7071 16.3791 15.0435 16.1694 15.3612C15.7957 15.9202 15.4171 16.353 14.785 16.6472C14.4604 16.8008 14.1052 16.8785 13.7461 16.8747Z" fill="white"/>
</svg>
