<svg width="365" height="382" viewBox="0 0 365 382" fill="none" xmlns="http://www.w3.org/2000/svg">
<rect x="1.64258" y="1.5" width="361" height="379" rx="13.5" stroke="white"/>
<path d="M4 369C4 373.97 8.02966 378 13 378H25.6533V382H13C5.82052 382 0 376.18 0 369V361.269H4V369ZM364.284 369C364.284 376.18 358.464 382 351.284 382H338.632V378H351.284C356.099 378 360.032 374.218 360.272 369.463L360.284 369V361.269H364.284V369ZM25.6533 0.28418V4H13L12.5371 4.01172C7.78189 4.25288 4 8.18485 4 13V17.7793H0V13C2.57705e-06 5.82046 5.82051 0.000255639 13 0H25.6562C25.6544 0.094502 25.6533 0.189227 25.6533 0.28418ZM351.284 0C358.464 0 364.284 5.82029 364.284 13V17.7793H360.284V13C360.284 8.02944 356.255 4 351.284 4H338.632V0.28418C338.632 0.189227 338.631 0.0945019 338.629 0H351.284Z" fill="white"/>
</svg>
