<svg width="24" height="24" viewBox="0 0 24 24" fill="none" xmlns="http://www.w3.org/2000/svg">
<path d="M16.166 21.539L13.327 18.7L14.016 18.012L16.141 20.136L20.391 15.886L21.079 16.6L16.166 21.539ZM7.4 16.289L6.711 15.6L8.311 14L6.711 12.4L7.4 11.712L9 13.312L10.6 11.712L11.289 12.4L9.689 14L11.289 15.6L10.6 16.288L9 14.688L7.4 16.289ZM5.616 21C5.15533 21 4.771 20.846 4.463 20.538C4.155 20.23 4.00067 19.8457 4 19.385V6.61502C4 6.15502 4.15433 5.77102 4.463 5.46302C4.77167 5.15502 5.156 5.00069 5.616 5.00002H7.385V2.77002H8.462V5.00002H15.616V2.77002H16.616V5.00002H18.385C18.845 5.00002 19.2293 5.15435 19.538 5.46302C19.8467 5.77169 20.0007 6.15602 20 6.61602V12.331L19 13.356V10.616H5V19.385C5 19.5384 5.064 19.6794 5.192 19.808C5.32 19.9367 5.461 20.0007 5.615 20H10.692L11.725 21H5.616Z" fill="black"/>
</svg>
