<svg width="24" height="24" viewBox="0 0 24 24" fill="none" xmlns="http://www.w3.org/2000/svg">
<path d="M3.5 6L7 2.5M3.5 9L7 12.5H3.5V2.5H21.5V12.5H13.5M21.5 6L18 2.5M21.5 9L18 12.5M3 23.5L8.5 20.5H15.5L21 17.5L20.5 16L15.5 17L9 16.5L11 14L10.5 12.5L5.5 15.5L3 18.5L0.5 19.5" stroke="black" stroke-miterlimit="10" stroke-linecap="round" stroke-linejoin="round"/>
<path d="M13.5 5.5H11.5L11 6.5L11.5 7.5H13.5L14 8.5L13.5 9.5H11.5M12.5 5.5V4.5M12.5 10.5V9.5" stroke="black" stroke-miterlimit="10" stroke-linecap="round" stroke-linejoin="round"/>
</svg>
