<svg width="18" height="18" viewBox="0 0 18 18" fill="none" xmlns="http://www.w3.org/2000/svg">
<path d="M15.1875 6.38325C15.8505 6.59625 16.3125 7.22925 16.3125 7.956V11.1705C16.3125 12.0225 15.6773 12.7455 14.8275 12.8153C14.5725 12.8355 14.3175 12.8543 14.0625 12.8693V15.1875L11.8125 12.9375C10.797 12.9375 9.792 12.8963 8.7975 12.8153C8.581 12.7978 8.3704 12.736 8.17875 12.6338M15.1875 6.38325C15.0716 6.34595 14.9518 6.32204 14.8305 6.312C12.822 6.14526 10.803 6.14526 8.7945 6.312C7.94625 6.3825 7.3125 7.10475 7.3125 7.956V11.1705C7.3125 11.7983 7.6575 12.3555 8.17875 12.6338M15.1875 6.38325V4.97775C15.1875 3.762 14.3235 2.70825 13.1175 2.5515C11.5656 2.35034 10.0024 2.24964 8.4375 2.25C6.85125 2.25 5.289 2.35275 3.7575 2.5515C2.5515 2.70825 1.6875 3.762 1.6875 4.97775V9.64725C1.6875 10.863 2.5515 11.9168 3.7575 12.0735C4.19025 12.1298 4.62525 12.1785 5.0625 12.219V15.75L8.17875 12.6338" stroke="black" stroke-linecap="round" stroke-linejoin="round"/>
</svg>
