<svg width="33" height="33" viewBox="0 0 33 33" fill="none" xmlns="http://www.w3.org/2000/svg">
<path fill-rule="evenodd" clip-rule="evenodd" d="M23.2154 12.5345C23.3751 12.6941 23.5017 12.8836 23.5881 13.0922C23.6745 13.3007 23.719 13.5243 23.719 13.75C23.719 13.9758 23.6745 14.1993 23.5881 14.4079C23.5017 14.6164 23.3751 14.8059 23.2154 14.9655L16.4999 21.681L9.78443 14.9655C9.46205 14.6432 9.28095 14.2059 9.28095 13.75C9.28095 13.2941 9.46205 12.8569 9.78443 12.5345C10.1068 12.2122 10.544 12.0311 10.9999 12.0311C11.4558 12.0311 11.8931 12.2122 12.2154 12.5345L16.4999 16.819L20.7844 12.5345C20.944 12.3749 21.1335 12.2482 21.3421 12.1618C21.5506 12.0754 21.7742 12.031 21.9999 12.031C22.2257 12.031 22.4492 12.0754 22.6578 12.1618C22.8663 12.2482 23.0558 12.3749 23.2154 12.5345Z" fill="black"/>
</svg>
