<svg width="40" height="25" viewBox="0 0 40 25" fill="none" xmlns="http://www.w3.org/2000/svg">
<path d="M32.7801 23.96C36.4914 23.96 39.5001 20.9514 39.5001 17.24C39.5001 13.5287 36.4914 10.52 32.7801 10.52C29.0687 10.52 26.0601 13.5287 26.0601 17.24C26.0601 20.9514 29.0687 23.96 32.7801 23.96Z" stroke="black" stroke-linecap="round" stroke-linejoin="round"/>
<path d="M7.22 24.1C10.9314 24.1 13.94 21.0914 13.94 17.38C13.94 13.6687 10.9314 10.66 7.22 10.66C3.50865 10.66 0.5 13.6687 0.5 17.38C0.5 21.0914 3.50865 24.1 7.22 24.1Z" stroke="black" stroke-linecap="round" stroke-linejoin="round"/>
<path d="M32.7799 17.24L26.9399 3.15L26.6599 1.49L27.8799 0.5" stroke="black" stroke-linecap="round" stroke-linejoin="round"/>
<path d="M26.94 3.15002L15.5 8.87002L7.21997 17.38L19.24 17.68L28.1 5.95002" stroke="black" stroke-linecap="round" stroke-linejoin="round"/>
<path d="M14.52 5.63L15.5 8.87L19.24 17.68M12.5 5.84999L16.87 5.37" stroke="black" stroke-linecap="round" stroke-linejoin="round"/>
</svg>
