<svg width="43" height="25" viewBox="0 0 43 25" fill="none" xmlns="http://www.w3.org/2000/svg">
<path d="M25.756 1.17294C25.6538 1.00216 25.7058 0.778693 25.876 0.673329C25.9781 0.60974 28.3755 -0.847325 29.8626 0.733285C29.8949 0.767805 29.92 0.807776 29.9379 0.85138L36.3953 17.5351C36.4669 17.7222 36.3773 17.933 36.1928 18.0074C36.1498 18.0238 36.105 18.0329 36.062 18.0329C35.9186 18.0329 35.7825 17.9457 35.7269 17.8021L29.2948 1.18728C28.1983 0.115353 26.2685 1.28357 26.2488 1.29447C26.0786 1.39984 25.8581 1.34554 25.756 1.17294ZM36.0585 10.9257C35.8704 10.9257 35.6804 10.933 35.4959 10.9493C35.2988 10.9657 35.1519 11.1419 35.168 11.3417C35.1841 11.5416 35.3579 11.6924 35.555 11.6742C35.7198 11.6597 35.8901 11.6542 36.0585 11.6542C39.4897 11.6542 42.2829 14.4848 42.2829 17.9638C42.2829 21.443 39.4913 24.2734 36.0585 24.2734C32.6273 24.2734 29.836 21.4428 29.836 17.9638C29.836 15.9653 30.7856 14.0649 32.3767 12.8765C32.5361 12.7566 32.5702 12.5295 32.4537 12.3678C32.3355 12.2061 32.1115 12.1716 31.952 12.2897C30.1782 13.6123 29.1193 15.7325 29.1193 17.9616C29.1193 21.8423 32.2333 25 36.0606 25C39.8859 25 43 21.8424 43 17.9616C43 14.0808 39.8859 10.9251 36.0587 10.9251L36.0585 10.9257ZM16.9552 16.6306C17.0394 17.0612 17.0806 17.51 17.0806 17.9624C17.0806 21.8412 13.9683 24.9989 10.143 24.9989C6.3158 24.9989 3.2017 21.8431 3.2017 17.9624C3.2017 14.0816 6.31576 10.924 10.143 10.924H10.1663C11.2987 10.924 12.1175 10.6569 12.535 10.15C12.9166 9.68489 12.9077 9.09988 12.8342 8.68929C12.6908 7.89354 11.6015 7.20496 9.96025 6.85431L9.96383 7.45569C9.96383 7.532 9.93517 7.60649 9.88141 7.66281C9.82766 7.71731 9.7542 7.7482 9.67894 7.75002L8.5842 7.75728L5.56871 9.11082L5.57767 10.1991C5.57767 10.3608 5.45046 10.4916 5.29279 10.4934L3.68739 10.5043H3.6838C3.52613 10.5043 3.39892 10.3753 3.39712 10.2154L3.38637 8.45492L0.860028 8.47309H0.856445C0.394182 8.47309 0.0197115 8.09519 0.0161337 7.62827C0.0125505 7.16136 0.38344 6.77802 0.845712 6.77439L3.37385 6.75804L3.36847 6.0095L0.842125 6.02585H0.834958C0.614574 6.02585 0.406734 5.94046 0.24908 5.7824C0.0896132 5.62434 0.0018209 5.41177 2.74388e-05 5.18465C-0.00176419 4.95573 0.0842374 4.74316 0.24191 4.58146C0.399584 4.41975 0.609216 4.33074 0.833202 4.32892L3.35597 4.31075L3.34522 2.59387C3.34522 2.51757 3.37568 2.44307 3.42764 2.38676C3.48139 2.33225 3.55485 2.30137 3.63011 2.29955L5.23551 2.28865C5.31076 2.28501 5.38422 2.31953 5.43977 2.37222C5.49352 2.42673 5.52398 2.50121 5.52577 2.57752L5.53294 3.66577L8.56636 4.97569L9.6611 4.96842C9.73098 4.96479 9.80982 4.99749 9.86536 5.052C9.91911 5.1065 9.94957 5.18099 9.94957 5.25911L9.95674 6.11299C12.0316 6.52359 13.3342 7.4084 13.542 8.56204C13.6889 9.36871 13.5313 10.0791 13.0887 10.6187C12.5225 11.3054 11.5406 11.6561 10.1682 11.6561H10.1449C6.71367 11.6561 3.9205 14.4867 3.9205 17.9675C3.9205 21.4467 6.71202 24.2753 10.1449 24.2753C13.5743 24.2753 16.3642 21.4447 16.3642 17.9675C16.3642 17.5624 16.3265 17.1609 16.2513 16.7757C16.2137 16.5777 16.3391 16.3869 16.5344 16.3488C16.7297 16.3052 16.9175 16.4326 16.9552 16.6306ZM3.36295 5.42631L3.35937 4.89219L0.834811 4.91035C0.763142 4.91035 0.698637 4.93942 0.64847 4.98848C0.598299 5.03935 0.571425 5.10657 0.573218 5.17924C0.57501 5.32459 0.695054 5.44268 0.838394 5.44268L3.36295 5.42631ZM3.37908 7.87173L3.37549 7.33942L0.849148 7.35577C0.704015 7.35759 0.587555 7.4775 0.589344 7.62465C0.589344 7.77182 0.709391 7.89173 0.854524 7.89173H0.856315L3.37908 7.87173ZM9.38877 7.16863L9.38519 6.65083L9.3834 6.36196V6.35833L9.38161 6.20753L9.37802 5.55164L8.50904 5.55891C8.46962 5.55891 8.4302 5.54983 8.39437 5.53529L5.13339 4.12547C5.02768 4.08005 4.95959 3.97468 4.95781 3.8584L4.95064 2.87187L3.92039 2.87914L3.93114 4.59602L3.9383 5.55167L3.94009 5.70973V5.72244L3.94905 7.04511L3.95085 7.24314V7.24677L3.95801 8.15335V8.17152L3.96876 9.91928L4.99902 9.91201L4.99364 8.92548C4.99185 8.80921 5.05993 8.70384 5.16385 8.6566L8.40511 7.20134C8.44094 7.18317 8.48036 7.1759 8.51978 7.1759L9.38877 7.16863ZM14.9609 3.31516C14.9609 3.1135 15.1221 2.9518 15.3192 2.9518H19.9758C20.1747 2.9518 20.3341 3.11531 20.3341 3.31516C20.3341 3.51682 20.1729 3.67852 19.9758 3.67852H18.1733L19.1176 6.60179H31.0576C31.2224 6.60179 31.3658 6.71624 31.407 6.87976C31.4464 7.04146 31.3711 7.21223 31.2242 7.28854L11.076 17.9915C11.0223 18.0187 10.9649 18.0315 10.9094 18.0315C10.8055 18.0315 10.7051 17.9879 10.6352 17.9025C10.5259 17.7735 10.5224 17.5845 10.6227 17.4483L18.458 6.89602L17.4188 3.67662H15.3189C15.1218 3.67844 14.9609 3.51501 14.9609 3.31516ZM29.6012 7.3303H19.0391L12.1569 16.5979L29.6012 7.3303Z" fill="black"/>
</svg>
