<svg width="66" height="66" viewBox="0 0 66 66" fill="none" xmlns="http://www.w3.org/2000/svg">
<path d="M22 8.25H21.45C16.8296 8.25 14.5194 8.25 12.7546 9.1492C11.2022 9.94015 9.94015 11.2022 9.1492 12.7546C8.25 14.5194 8.25 16.8296 8.25 21.45V22M22 57.75H21.45C16.8296 57.75 14.5194 57.75 12.7546 56.8508C11.2022 56.0598 9.94015 54.7978 9.1492 53.2454C8.25 51.4806 8.25 49.1704 8.25 44.55V44M57.75 22V21.45C57.75 16.8296 57.75 14.5194 56.8508 12.7546C56.0598 11.2022 54.7978 9.94015 53.2454 9.1492C51.4806 8.25 49.1704 8.25 44.55 8.25H44M57.75 44V44.55C57.75 49.1704 57.75 51.4806 56.8508 53.2454C56.0598 54.7978 54.7978 56.0598 53.2454 56.8508C51.4806 57.75 49.1704 57.75 44.55 57.75H44M20.625 22V26.125M45.375 22V26.125M30.25 34.6503C32.45 34.6503 34.375 32.7253 34.375 30.5253V22M41.8005 41.7999C36.8505 46.7499 28.8755 46.7499 23.9255 41.7999" stroke="black" stroke-width="4" stroke-linecap="round" stroke-linejoin="round"/>
</svg>
