<svg width="30" height="30" viewBox="0 0 30 30" fill="none" xmlns="http://www.w3.org/2000/svg">
<g clip-path="url(#clip0_133_3622)">
<path d="M30 15C30 23.2845 23.2845 30 15 30C6.71553 30 0 23.2845 0 15C0 6.71553 6.71553 0 15 0C23.2845 0 30 6.71553 30 15ZM28.1239 15.0288C28.1239 7.79129 22.2563 1.92367 15.0187 1.92367C7.7812 1.92367 1.91213 7.78985 1.91213 15.0288C1.91213 22.2678 7.77975 28.134 15.0173 28.134C22.2549 28.134 28.1225 22.2664 28.1225 15.0288H28.1239Z" fill="#34C759"/>
<path d="M10.5441 22.7047C9.9384 22.2765 9.21162 21.6939 9.75238 20.8416C10.3479 19.9043 11.8967 21.4559 12.4735 21.7126C14.3928 22.5663 16.279 22.2995 18.0787 21.3478C18.4276 21.1632 18.9194 20.6614 19.2121 20.6037C20.2907 20.3961 20.7652 21.43 20.0788 22.1943C17.9402 24.5765 13.0474 24.4727 10.5426 22.7047H10.5441Z" fill="#34C759"/>
<path d="M16.0541 10.4259C16.155 10.4965 16.3929 10.7229 16.4073 10.8628C16.1521 12.6668 16.9914 16.9035 15.6777 18.2229C14.4923 19.4126 11.7135 18.8762 12.8037 17.3678C13.206 16.8098 14.377 17.4947 14.5096 16.4824C14.7086 14.9582 14.1967 12.0438 14.5889 10.7893C14.8326 10.0106 15.4643 10.012 16.0555 10.4259H16.0541Z" fill="#34C759"/>
<path d="M20.1869 14.3612C19.7601 13.9358 19.7543 11.5045 19.8884 10.8989C20.1364 9.78418 21.9995 9.64719 22.2793 10.8989C22.3528 11.2291 22.4206 13.258 22.3817 13.6084C22.2764 14.5616 20.8675 15.0389 20.1869 14.3597V14.3612Z" fill="#34C759"/>
<path d="M9.40634 10.1577C10.26 10.5715 10.0524 12.1506 10.0899 12.9841C10.0826 13.607 9.99324 14.1752 9.44671 14.4895C9.02564 14.7246 8.45604 14.6756 8.08111 14.3771C7.70618 14.0786 7.7307 13.6315 7.70907 12.8918C7.70186 12.5255 7.70041 12.1491 7.7033 11.7828C7.71483 11.1051 7.68744 10.6667 8.04794 10.361C8.40412 10.0654 8.96075 9.93848 9.3847 10.1476L9.40778 10.1591L9.40634 10.1577Z" fill="#34C759"/>
</g>
<defs>
<clipPath id="clip0_133_3622">
<rect width="30" height="30" fill="white"/>
</clipPath>
</defs>
</svg>
