<svg width="12" height="12" viewBox="0 0 12 12" fill="none" xmlns="http://www.w3.org/2000/svg">
<path d="M7.5 5H4.5M6 6.5V7.5M2.25 2.5H9.75M4.5 5.8285V9.5C4.5 9.966 4.5 10.199 4.576 10.3825C4.62626 10.5039 4.69995 10.6142 4.79286 10.7071C4.88578 10.8001 4.99609 10.8737 5.1175 10.924C5.301 11 5.534 11 6 11C6.466 11 6.699 11 6.8825 10.924C7.00391 10.8737 7.11422 10.8001 7.20714 10.7071C7.30005 10.6142 7.37374 10.5039 7.424 10.3825C7.5 10.199 7.5 9.966 7.5 9.5V5.8285C7.5 5.4195 7.5 5.2155 7.576 5.0315C7.6525 4.848 7.797 4.703 8.086 4.414L9.707 2.793C9.852 2.648 9.924 2.576 9.962 2.484C10 2.3925 10 2.29 10 2.086V2C10 1.5285 10 1.293 9.8535 1.1465C9.707 1 9.4715 1 9 1H3C2.5285 1 2.293 1 2.1465 1.1465C2 1.293 2 1.5285 2 2V2.086C2 2.29 2 2.3925 2.038 2.484C2.076 2.5755 2.148 2.6485 2.293 2.793L3.914 4.414C4.203 4.703 4.348 4.848 4.424 5.0315C4.5 5.215 4.5 5.42 4.5 5.8285Z" stroke="black" stroke-linecap="round"/>
</svg>
