<svg width="18" height="18" viewBox="0 0 18 18" fill="none" xmlns="http://www.w3.org/2000/svg">
<path d="M1.6875 11.8125L5.55675 7.94325C5.71345 7.78655 5.89948 7.66225 6.10422 7.57744C6.30896 7.49263 6.52839 7.44899 6.75 7.44899C6.97161 7.44899 7.19104 7.49263 7.39578 7.57744C7.60052 7.66225 7.78655 7.78655 7.94325 7.94325L11.8125 11.8125M10.6875 10.6875L11.7443 9.63075C11.9009 9.47405 12.087 9.34975 12.2917 9.26494C12.4965 9.18013 12.7159 9.13649 12.9375 9.13649C13.1591 9.13649 13.3785 9.18013 13.5833 9.26494C13.788 9.34975 13.9741 9.47405 14.1307 9.63075L16.3125 11.8125M2.8125 14.625H15.1875C15.4859 14.625 15.772 14.5065 15.983 14.2955C16.194 14.0845 16.3125 13.7984 16.3125 13.5V4.5C16.3125 4.20163 16.194 3.91548 15.983 3.7045C15.772 3.49353 15.4859 3.375 15.1875 3.375H2.8125C2.51413 3.375 2.22798 3.49353 2.017 3.7045C1.80603 3.91548 1.6875 4.20163 1.6875 4.5V13.5C1.6875 13.7984 1.80603 14.0845 2.017 14.2955C2.22798 14.5065 2.51413 14.625 2.8125 14.625ZM10.6875 6.1875H10.6935V6.1935H10.6875V6.1875ZM10.9688 6.1875C10.9688 6.26209 10.9391 6.33363 10.8864 6.38637C10.8336 6.43912 10.7621 6.46875 10.6875 6.46875C10.6129 6.46875 10.5414 6.43912 10.4886 6.38637C10.4359 6.33363 10.4062 6.26209 10.4062 6.1875C10.4062 6.11291 10.4359 6.04137 10.4886 5.98863C10.5414 5.93588 10.6129 5.90625 10.6875 5.90625C10.7621 5.90625 10.8336 5.93588 10.8864 5.98863C10.9391 6.04137 10.9688 6.11291 10.9688 6.1875Z" stroke="#5260FE" stroke-linecap="round" stroke-linejoin="round"/>
</svg>
