<svg width="12" height="12" viewBox="0 0 12 12" fill="none" xmlns="http://www.w3.org/2000/svg">
<path d="M1.125 7.875L3.7045 5.2955C3.80897 5.19103 3.93299 5.10816 4.06948 5.05163C4.20597 4.99509 4.35226 4.96599 4.5 4.96599C4.64774 4.96599 4.79403 4.99509 4.93052 5.05163C5.06701 5.10816 5.19103 5.19103 5.2955 5.2955L7.875 7.875M7.125 7.125L7.8295 6.4205C7.93397 6.31603 8.05799 6.23316 8.19448 6.17663C8.33097 6.12009 8.47726 6.09099 8.625 6.09099C8.77274 6.09099 8.91903 6.12009 9.05552 6.17663C9.19201 6.23316 9.31603 6.31603 9.4205 6.4205L10.875 7.875M1.875 9.75H10.125C10.3239 9.75 10.5147 9.67098 10.6553 9.53033C10.796 9.38968 10.875 9.19891 10.875 9V3C10.875 2.80109 10.796 2.61032 10.6553 2.46967C10.5147 2.32902 10.3239 2.25 10.125 2.25H1.875C1.67609 2.25 1.48532 2.32902 1.34467 2.46967C1.20402 2.61032 1.125 2.80109 1.125 3V9C1.125 9.19891 1.20402 9.38968 1.34467 9.53033C1.48532 9.67098 1.67609 9.75 1.875 9.75ZM7.125 4.125H7.129V4.129H7.125V4.125ZM7.3125 4.125C7.3125 4.17473 7.29275 4.22242 7.25758 4.25758C7.22242 4.29275 7.17473 4.3125 7.125 4.3125C7.07527 4.3125 7.02758 4.29275 6.99242 4.25758C6.95725 4.22242 6.9375 4.17473 6.9375 4.125C6.9375 4.07527 6.95725 4.02758 6.99242 3.99242C7.02758 3.95725 7.07527 3.9375 7.125 3.9375C7.17473 3.9375 7.22242 3.95725 7.25758 3.99242C7.29275 4.02758 7.3125 4.07527 7.3125 4.125Z" stroke="black" stroke-linecap="round" stroke-linejoin="round"/>
</svg>
