<svg width="24" height="24" viewBox="0 0 24 24" fill="none" xmlns="http://www.w3.org/2000/svg">
<path d="M20.75 11.25V19.5C20.75 19.8978 20.592 20.2794 20.3107 20.5607C20.0294 20.842 19.6478 21 19.25 21H5C4.60218 21 4.22064 20.842 3.93934 20.5607C3.65804 20.2794 3.5 19.8978 3.5 19.5V11.25M11.75 4.875C11.75 4.35583 11.596 3.84831 11.3076 3.41663C11.0192 2.98495 10.6092 2.6485 10.1295 2.44982C9.64989 2.25114 9.12209 2.19915 8.61289 2.30044C8.10369 2.40173 7.63596 2.65173 7.26884 3.01885C6.90173 3.38596 6.65172 3.85369 6.55044 4.36289C6.44915 4.87209 6.50114 5.39989 6.69982 5.87954C6.8985 6.3592 7.23495 6.76917 7.66663 7.05761C8.09831 7.34605 8.60582 7.5 9.125 7.5H11.75M11.75 4.875V7.5M11.75 4.875C11.75 4.35583 11.904 3.84831 12.1924 3.41663C12.4808 2.98495 12.8908 2.6485 13.3705 2.44982C13.8501 2.25114 14.3779 2.19915 14.8871 2.30044C15.3963 2.40173 15.864 2.65173 16.2312 3.01885C16.5983 3.38596 16.8483 3.85369 16.9496 4.36289C17.0508 4.87209 16.9989 5.39989 16.8002 5.87954C16.6015 6.3592 16.2651 6.76917 15.8334 7.05761C15.4017 7.34605 14.8942 7.5 14.375 7.5H11.75M11.75 7.5V21M3.125 11.25H21.125C21.746 11.25 22.25 10.746 22.25 10.125V8.625C22.25 8.004 21.746 7.5 21.125 7.5H3.125C2.504 7.5 2 8.004 2 8.625V10.125C2 10.746 2.504 11.25 3.125 11.25Z" stroke="#6047CE" stroke-width="1.5" stroke-linecap="round" stroke-linejoin="round"/>
</svg>
