<svg width="14" height="14" viewBox="0 0 14 14" fill="none" xmlns="http://www.w3.org/2000/svg">
<g clip-path="url(#clip0_368_2255)">
<path d="M7.875 6.125V3.9375C7.875 3.24131 8.15156 2.57363 8.64384 2.08134C9.13613 1.58906 9.80381 1.3125 10.5 1.3125C11.1962 1.3125 11.8639 1.58906 12.3562 2.08134C12.8484 2.57363 13.125 3.24131 13.125 3.9375V6.125M2.1875 12.6875H8.3125C8.6606 12.6875 8.99444 12.5492 9.24058 12.3031C9.48672 12.0569 9.625 11.7231 9.625 11.375V7.4375C9.625 7.0894 9.48672 6.75556 9.24058 6.50942C8.99444 6.26328 8.6606 6.125 8.3125 6.125H2.1875C1.8394 6.125 1.50556 6.26328 1.25942 6.50942C1.01328 6.75556 0.875 7.0894 0.875 7.4375V11.375C0.875 11.7231 1.01328 12.0569 1.25942 12.3031C1.50556 12.5492 1.8394 12.6875 2.1875 12.6875Z" stroke="black" stroke-linecap="round" stroke-linejoin="round"/>
</g>
<defs>
<clipPath id="clip0_368_2255">
<rect width="14" height="14" fill="white"/>
</clipPath>
</defs>
</svg>
