<svg width="38" height="25" viewBox="0 0 38 25" fill="none" xmlns="http://www.w3.org/2000/svg">
<path d="M32.1399 24.9977C31.1336 24.9973 30.1468 24.693 29.2879 24.118C28.4289 23.5431 27.7311 22.7199 27.271 21.7387C26.8109 20.7575 26.6062 19.6562 26.6796 18.5559C26.7529 17.4556 27.1014 16.3986 27.6867 15.5012C27.7506 15.4035 27.8473 15.3377 27.9555 15.3182C28.0636 15.2987 28.1745 15.3271 28.2635 15.3972C28.3526 15.4672 28.4127 15.5732 28.4304 15.6918C28.4482 15.8104 28.4223 15.9319 28.3584 16.0296C27.6833 17.0449 27.3674 18.2944 27.4694 19.5458C27.5714 20.7973 28.0843 21.9656 28.9129 22.8336C29.7415 23.7017 30.8294 24.2104 31.9743 24.2652C33.1193 24.3201 34.2435 23.9173 35.138 23.1318C36.0325 22.3464 36.6364 21.2316 36.8376 19.9946C37.0388 18.7577 36.8235 17.4828 36.2317 16.4068C35.64 15.3307 34.7121 14.5269 33.6204 14.1445C32.5287 13.7621 31.3475 13.8273 30.2963 14.3279L32.5025 18.7786C32.5548 18.8843 32.5667 19.0084 32.5356 19.1237C32.5045 19.239 32.4329 19.336 32.3365 19.3934C32.2401 19.4507 32.1269 19.4638 32.0217 19.4297C31.9166 19.3956 31.8281 19.317 31.7757 19.2114L27.6606 10.9127C27.6083 10.807 27.5964 10.6829 27.6275 10.5676C27.6586 10.4523 27.7302 10.3553 27.8266 10.2979C27.923 10.2405 28.0362 10.2274 28.1413 10.2616C28.2465 10.2957 28.335 10.3742 28.3873 10.4799L29.9015 13.5343C30.6456 13.1675 31.4552 12.9878 32.2708 13.0084C33.0865 13.029 33.8876 13.2494 34.6155 13.6535C35.3434 14.0575 35.9796 14.6349 36.4776 15.3435C36.9755 16.052 37.3226 16.8737 37.4934 17.7484C37.6641 18.623 37.6542 19.5285 37.4644 20.3984C37.2746 21.2683 36.9097 22.0806 36.3965 22.7759C35.8832 23.4712 35.2345 24.0318 34.498 24.4166C33.7615 24.8014 32.9558 25.0007 32.1399 24.9999V24.9977Z" fill="black"/>
<path d="M8.24001 6.24491C10.44 7.4744 16.1251 9.72311 21.3828 4.06961C21.6544 3.77474 22.0211 3.60928 22.4034 3.60918H24.1263L22.9858 0.906373H20.6168C20.5071 0.906373 20.402 0.858627 20.3245 0.773638C20.247 0.688649 20.2034 0.573379 20.2034 0.453186C20.2034 0.332994 20.247 0.217724 20.3245 0.132735C20.402 0.0477459 20.5071 0 20.6168 0H23.2504C23.3292 4.53135e-05 23.4064 0.0248156 23.4728 0.0713886C23.5393 0.117962 23.5922 0.184394 23.6253 0.262848L25.0374 3.60918H26.292C26.4544 3.60899 26.6139 3.65689 26.7536 3.74782C26.8933 3.83875 27.008 3.96934 27.0856 4.12581L28.6945 7.36292C28.7631 7.34117 28.8313 7.3176 28.9012 7.29721C30.8796 6.80374 32.9552 7.15558 34.7053 8.28107C34.7946 8.34691 34.8569 8.44831 34.8791 8.56372C34.9012 8.67914 34.8815 8.79948 34.824 8.89919C34.7665 8.99889 34.6759 9.07011 34.5713 9.0977C34.4667 9.12529 34.3564 9.10709 34.2638 9.04696C34.2399 9.03064 31.8439 7.39963 29.1074 8.17458C27.179 8.7184 25.538 10.3249 24.2296 12.9416C24.2036 12.9938 24.1684 13.0399 24.126 13.0772C24.0837 13.1144 24.0351 13.1422 23.983 13.1589C23.9309 13.1756 23.8763 13.1809 23.8223 13.1744C23.7684 13.168 23.7161 13.1499 23.6685 13.1213C23.6209 13.0927 23.5789 13.0541 23.5449 13.0077C23.5109 12.9614 23.4855 12.9081 23.4703 12.8509C23.4551 12.7938 23.4503 12.734 23.4562 12.6748C23.4621 12.6156 23.4785 12.5583 23.5046 12.5061C24.7034 10.1092 26.1808 8.4909 27.907 7.67426L26.3593 4.55905C26.3528 4.54548 26.3431 4.5341 26.3311 4.52612C26.3192 4.51814 26.3055 4.51386 26.2915 4.51374H22.4034C22.2375 4.51561 22.0791 4.58905 21.9623 4.71812C19.1667 7.7232 16.2189 8.61235 13.7085 8.61235C11.6774 8.58892 9.67818 8.05513 7.86467 7.05203C7.41588 6.80467 6.92018 6.67688 6.41787 6.67906H4.93717V8.12291C4.93689 8.22818 4.96349 8.33143 5.01398 8.42098C5.06446 8.51052 5.1368 8.58278 5.22281 8.62958L11.1241 11.8644C13.4803 13.0916 14.4687 14.5944 14.8391 15.8928C14.8487 15.9052 14.856 15.9197 14.8605 15.9352C14.8649 15.9508 14.8665 15.9672 14.8651 15.9834C15.058 16.712 15.0873 17.4808 14.9507 18.2244H18.9281C21.3931 18.2244 22.3376 15.6327 22.553 14.9089C21.4646 13.1827 18.4065 13.6636 18.3751 13.669C18.2666 13.687 18.1561 13.6571 18.0678 13.5858C17.9795 13.5145 17.9207 13.4077 17.9042 13.2888C17.8878 13.1699 17.9151 13.0487 17.9801 12.9519C18.0452 12.8551 18.1426 12.7906 18.251 12.7726C18.4069 12.7468 22.0838 12.1653 23.362 14.6171C23.4155 14.7197 23.4303 14.8412 23.4033 14.9556C23.3938 14.9973 22.3773 19.1308 18.9286 19.1308H14.4038C14.3349 19.1308 14.2671 19.1119 14.2066 19.0758C14.1461 19.0397 14.0947 18.9877 14.0572 18.9243C14.0197 18.861 13.9972 18.7883 13.9919 18.713C13.9865 18.6377 13.9984 18.5622 14.0264 18.4932C14.232 17.9008 14.2823 17.2572 14.1715 16.6351L10.8232 17.7228C11.1052 19.147 10.9048 20.6351 10.2594 21.9093C9.614 23.1834 8.5677 24.1566 7.31583 24.647C6.06396 25.1374 4.69208 25.1116 3.45628 24.5744C2.22049 24.0372 1.20525 23.0253 0.600079 21.7277C-0.00508862 20.43 -0.15882 18.9352 0.167586 17.5224C0.493991 16.1096 1.27822 14.8753 2.37388 14.0499C3.46954 13.2245 4.80174 12.8644 6.12179 13.0369C7.44184 13.2094 8.65952 13.9027 9.5475 14.9873C9.61943 15.0771 9.65613 15.1943 9.64962 15.3136C9.6431 15.4328 9.5939 15.5444 9.51272 15.6241C9.43153 15.7038 9.32493 15.7451 9.2161 15.7391C9.10727 15.733 9.00502 15.6801 8.93158 15.5919C8.20608 14.7056 7.22037 14.1258 6.1456 13.9533C5.07083 13.7808 3.97488 14.0263 3.04804 14.6473C2.1212 15.2683 1.422 16.2256 1.07185 17.3528C0.721693 18.4801 0.742697 19.7062 1.13121 20.8183C1.51972 21.9304 2.25121 22.8582 3.19866 23.4406C4.14611 24.023 5.2497 24.2233 6.3178 24.0066C7.3859 23.79 8.35106 23.1701 9.0457 22.2545C9.74035 21.339 10.1206 20.1857 10.1204 18.9949C10.1201 18.6556 10.0883 18.3174 10.0258 17.9852L5.59154 19.4295C5.53906 19.4481 5.48373 19.455 5.42878 19.4498C5.37383 19.4446 5.32038 19.4274 5.27159 19.3992C5.22279 19.3711 5.17964 19.3325 5.14466 19.2857C5.10968 19.239 5.08359 19.185 5.06792 19.127C5.05225 19.0691 5.04732 19.0082 5.05342 18.9481C5.05953 18.8881 5.07654 18.8299 5.10345 18.7771C5.13037 18.7244 5.16664 18.678 5.21014 18.6408C5.25364 18.6037 5.30349 18.5764 5.35674 18.5607L10.2035 16.9854L13.9239 15.775C13.52 14.778 12.6242 13.655 10.7595 12.6838L4.85202 9.44531C4.62813 9.32395 4.43975 9.13623 4.30824 8.90346C4.17672 8.67068 4.10734 8.40216 4.10795 8.12835V6.68087H0.70135C0.591717 6.68087 0.486574 6.63313 0.409051 6.54814C0.331529 6.46315 0.287978 6.34788 0.287978 6.22769C0.287978 6.10749 0.331529 5.99223 0.409051 5.90724C0.486574 5.82225 0.591717 5.7745 0.70135 5.7745H6.41952C7.05163 5.77239 7.6753 5.93355 8.24001 6.24491Z" fill="black"/>
</svg>
