<svg width="41" height="24" viewBox="0 0 41 24" fill="none" xmlns="http://www.w3.org/2000/svg">
<path d="M12.0001 7.5C12.1327 7.5 12.2599 7.55268 12.3536 7.64645C12.4474 7.74021 12.5001 7.86739 12.5001 8V11.134L15.2141 9.567C15.271 9.53365 15.3339 9.51188 15.3992 9.50295C15.4645 9.49402 15.531 9.4981 15.5947 9.51495C15.6585 9.53181 15.7183 9.5611 15.7707 9.60116C15.823 9.64121 15.867 9.69123 15.9 9.74834C15.9329 9.80544 15.9543 9.8685 15.9628 9.93389C15.9713 9.99928 15.9668 10.0657 15.9495 10.1293C15.9322 10.193 15.9025 10.2526 15.8621 10.3047C15.8217 10.3568 15.7714 10.4004 15.7141 10.433L13.0001 12L15.7141 13.567C15.828 13.6338 15.9108 13.7429 15.9446 13.8705C15.9783 13.9982 15.9602 14.134 15.8942 14.2483C15.8282 14.3627 15.7196 14.4463 15.5922 14.4809C15.4648 14.5155 15.3289 14.4983 15.2141 14.433L12.5001 12.866V16C12.5001 16.1326 12.4474 16.2598 12.3536 16.3536C12.2599 16.4473 12.1327 16.5 12.0001 16.5C11.8675 16.5 11.7403 16.4473 11.6465 16.3536C11.5528 16.2598 11.5001 16.1326 11.5001 16V12.866L8.78608 14.433C8.6713 14.4983 8.53536 14.5155 8.40794 14.4809C8.28052 14.4463 8.17196 14.3627 8.10594 14.2483C8.03992 14.134 8.02181 13.9982 8.05556 13.8705C8.0893 13.7429 8.17217 13.6338 8.28608 13.567L11.0001 12L8.28608 10.433C8.22875 10.4004 8.17844 10.3568 8.13804 10.3047C8.09764 10.2526 8.06795 10.193 8.05067 10.1293C8.03339 10.0657 8.02887 9.99928 8.03737 9.93389C8.04587 9.8685 8.06722 9.80544 8.10019 9.74834C8.13316 9.69123 8.17711 9.64121 8.22949 9.60116C8.28187 9.5611 8.34165 9.53181 8.4054 9.51495C8.46915 9.4981 8.53561 9.49402 8.60094 9.50295C8.66627 9.51188 8.72919 9.53365 8.78608 9.567L11.5001 11.134V8C11.5001 7.86739 11.5528 7.74021 11.6465 7.64645C11.7403 7.55268 11.8675 7.5 12.0001 7.5Z" fill="black"/>
<path d="M21.0001 7.5C21.1327 7.5 21.2599 7.55268 21.3536 7.64645C21.4474 7.74021 21.5001 7.86739 21.5001 8V11.134L24.2141 9.567C24.271 9.53365 24.3339 9.51188 24.3992 9.50295C24.4645 9.49402 24.531 9.4981 24.5947 9.51495C24.6585 9.53181 24.7183 9.5611 24.7707 9.60116C24.823 9.64121 24.867 9.69123 24.9 9.74834C24.9329 9.80544 24.9543 9.8685 24.9628 9.93389C24.9713 9.99928 24.9668 10.0657 24.9495 10.1293C24.9322 10.193 24.9025 10.2526 24.8621 10.3047C24.8217 10.3568 24.7714 10.4004 24.7141 10.433L22.0001 12L24.7141 13.567C24.828 13.6338 24.9108 13.7429 24.9446 13.8705C24.9783 13.9982 24.9602 14.134 24.8942 14.2483C24.8282 14.3627 24.7196 14.4463 24.5922 14.4809C24.4648 14.5155 24.3289 14.4983 24.2141 14.433L21.5001 12.866V16C21.5001 16.1326 21.4474 16.2598 21.3536 16.3536C21.2599 16.4473 21.1327 16.5 21.0001 16.5C20.8675 16.5 20.7403 16.4473 20.6465 16.3536C20.5528 16.2598 20.5001 16.1326 20.5001 16V12.866L17.7861 14.433C17.6713 14.4983 17.5354 14.5155 17.4079 14.4809C17.2805 14.4463 17.172 14.3627 17.1059 14.2483C17.0399 14.134 17.0218 13.9982 17.0556 13.8705C17.0893 13.7429 17.1722 13.6338 17.2861 13.567L20.0001 12L17.2861 10.433C17.2288 10.4004 17.1784 10.3568 17.138 10.3047C17.0976 10.2526 17.0679 10.193 17.0507 10.1293C17.0334 10.0657 17.0289 9.99928 17.0374 9.93389C17.0459 9.8685 17.0672 9.80544 17.1002 9.74834C17.1332 9.69123 17.1771 9.64121 17.2295 9.60116C17.2819 9.5611 17.3417 9.53181 17.4054 9.51495C17.4692 9.4981 17.5356 9.49402 17.6009 9.50295C17.6663 9.51188 17.7292 9.53365 17.7861 9.567L20.5001 11.134V8C20.5001 7.86739 20.5528 7.74021 20.6465 7.64645C20.7403 7.55268 20.8675 7.5 21.0001 7.5Z" fill="black"/>
<path d="M29.0001 7.5C29.1327 7.5 29.2599 7.55268 29.3536 7.64645C29.4474 7.74021 29.5001 7.86739 29.5001 8V11.134L32.2141 9.567C32.271 9.53365 32.3339 9.51188 32.3992 9.50295C32.4645 9.49402 32.531 9.4981 32.5947 9.51495C32.6585 9.53181 32.7183 9.5611 32.7707 9.60116C32.823 9.64121 32.867 9.69123 32.9 9.74834C32.9329 9.80544 32.9543 9.8685 32.9628 9.93389C32.9713 9.99928 32.9668 10.0657 32.9495 10.1293C32.9322 10.193 32.9025 10.2526 32.8621 10.3047C32.8217 10.3568 32.7714 10.4004 32.7141 10.433L30.0001 12L32.7141 13.567C32.828 13.6338 32.9108 13.7429 32.9446 13.8705C32.9783 13.9982 32.9602 14.134 32.8942 14.2483C32.8282 14.3627 32.7196 14.4463 32.5922 14.4809C32.4648 14.5155 32.3289 14.4983 32.2141 14.433L29.5001 12.866V16C29.5001 16.1326 29.4474 16.2598 29.3536 16.3536C29.2599 16.4473 29.1327 16.5 29.0001 16.5C28.8675 16.5 28.7403 16.4473 28.6465 16.3536C28.5528 16.2598 28.5001 16.1326 28.5001 16V12.866L25.7861 14.433C25.6713 14.4983 25.5354 14.5155 25.4079 14.4809C25.2805 14.4463 25.172 14.3627 25.1059 14.2483C25.0399 14.134 25.0218 13.9982 25.0556 13.8705C25.0893 13.7429 25.1722 13.6338 25.2861 13.567L28.0001 12L25.2861 10.433C25.2288 10.4004 25.1784 10.3568 25.138 10.3047C25.0976 10.2526 25.0679 10.193 25.0507 10.1293C25.0334 10.0657 25.0289 9.99928 25.0374 9.93389C25.0459 9.8685 25.0672 9.80544 25.1002 9.74834C25.1332 9.69123 25.1771 9.64121 25.2295 9.60116C25.2819 9.5611 25.3417 9.53181 25.4054 9.51495C25.4692 9.4981 25.5356 9.49402 25.6009 9.50295C25.6663 9.51188 25.7292 9.53365 25.7861 9.567L28.5001 11.134V8C28.5001 7.86739 28.5528 7.74021 28.6465 7.64645C28.7403 7.55268 28.8675 7.5 29.0001 7.5Z" fill="black"/>
</svg>
