<svg width="20" height="20" viewBox="0 0 20 20" fill="none" xmlns="http://www.w3.org/2000/svg">
<path d="M10.0003 18.3346C5.39783 18.3346 1.66699 14.6038 1.66699 10.0013C1.66699 5.3988 5.39783 1.66797 10.0003 1.66797C14.6028 1.66797 18.3337 5.3988 18.3337 10.0013C18.3337 14.6038 14.6028 18.3346 10.0003 18.3346ZM10.0003 13.3346C10.8844 13.3346 11.7322 12.9834 12.3573 12.3583C12.9825 11.7332 13.3337 10.8854 13.3337 10.0013C13.3337 9.11725 12.9825 8.2694 12.3573 7.64428C11.7322 7.01916 10.8844 6.66797 10.0003 6.66797C9.11627 6.66797 8.26842 7.01916 7.6433 7.64428C7.01818 8.2694 6.66699 9.11725 6.66699 10.0013C6.66699 10.8854 7.01818 11.7332 7.6433 12.3583C8.26842 12.9834 9.11627 13.3346 10.0003 13.3346Z" fill="#5260FE"/>
</svg>
