<svg width="20" height="20" viewBox="0 0 20 20" fill="none" xmlns="http://www.w3.org/2000/svg">
<path d="M10 18.3351C14.6034 18.3351 18.335 14.6034 18.335 10.0009C18.335 5.39756 14.6034 1.66589 10 1.66589C5.39671 1.66589 1.66504 5.39756 1.66504 10.0009C1.66504 14.6034 5.39671 18.3351 10 18.3351ZM10 17.0851C9.06059 17.0995 8.12766 16.9269 7.25554 16.5773C6.38342 16.2278 5.58954 15.7083 4.92009 15.049C4.25065 14.3898 3.71901 13.6039 3.35613 12.7373C2.99325 11.8706 2.80638 10.9405 2.80638 10.0009C2.80638 9.06133 2.99325 8.13116 3.35613 7.2645C3.71901 6.39785 4.25065 5.61202 4.92009 4.95277C5.58954 4.29352 6.38342 3.774 7.25554 3.42445C8.12766 3.07491 9.06059 2.90232 10 2.91673C11.8657 2.93696 13.648 3.69228 14.9601 5.0187C16.2723 6.34512 17.0082 8.13556 17.0082 10.0013C17.0082 11.8671 16.2723 13.6575 14.9601 14.9839C13.648 16.3103 11.8657 17.0648 10 17.0851Z" fill="#5260FE" fill-opacity="0.6"/>
</svg>
