<svg width="12" height="13" viewBox="0 0 12 13" fill="none" xmlns="http://www.w3.org/2000/svg">
<path d="M1 6.19266C1 5.91652 0.776142 5.69266 0.5 5.69266C0.223858 5.69266 0 5.91652 0 6.19266H0.5H1ZM10.3503 6.19266C10.3503 6.4688 10.5742 6.69266 10.8503 6.69266C11.1264 6.69266 11.3503 6.4688 11.3503 6.19266H10.8503H10.3503ZM1.74225 2.82882L2.10225 3.1758L2.11248 3.16519L2.12207 3.15399L1.74225 2.82882ZM9.60805 9.55651L9.98787 9.88168L9.99405 9.87446L9.99994 9.86702L9.60805 9.55651ZM1.65346 0.502231C1.65469 0.226091 1.43183 0.001237 1.15569 4.97699e-06C0.879555 -0.00122702 0.654701 0.22163 0.653469 0.497769L1.15346 0.5L1.65346 0.502231ZM1.14888 1.52764L0.648884 1.5254V1.5254L1.14888 1.52764ZM3.05333 3.43209L3.05556 3.93209H3.05556L3.05333 3.43209ZM4.0832 3.9275C4.35934 3.92627 4.5822 3.70141 4.58096 3.42527C4.57973 3.14913 4.35488 2.92628 4.07874 2.92751L4.08097 3.42751L4.0832 3.9275ZM1.36031 3.0372L0.96489 3.34322L0.96489 3.34322L1.36031 3.0372ZM1.54377 3.22066L1.23775 3.61608L1.23775 3.61608L1.54377 3.22066ZM9.65521 11.8415C9.65397 12.1176 9.87683 12.3425 10.153 12.3437C10.4291 12.3449 10.654 12.1221 10.6552 11.8459L10.1552 11.8437L9.65521 11.8415ZM10.1598 10.8161L10.6598 10.8183V10.8183L10.1598 10.8161ZM8.25533 8.91162L8.2531 8.41162V8.41162L8.25533 8.91162ZM7.22546 8.41621C6.94933 8.41744 6.72647 8.6423 6.7277 8.91844C6.72893 9.19458 6.95379 9.41743 7.22993 9.4162L7.2277 8.9162L7.22546 8.41621ZM9.94836 9.30651L10.3438 9.00049H10.3438L9.94836 9.30651ZM9.7649 9.12305L10.0709 8.72763V8.72763L9.7649 9.12305ZM1.4468 3.13534L1.09354 3.48918V3.48918L1.4468 3.13534ZM5.67515 11.3678V10.8678C3.09314 10.8678 1 8.77468 1 6.19266H0.5H0C0 9.32696 2.54085 11.8678 5.67515 11.8678V11.3678ZM5.67515 1.01751V1.51751C8.25716 1.51751 10.3503 3.61065 10.3503 6.19266H10.8503H11.3503C11.3503 3.05836 8.80945 0.517515 5.67515 0.517515V1.01751ZM1.74225 2.82882L2.12207 3.15399C2.9803 2.15152 4.25341 1.51751 5.67515 1.51751V1.01751V0.517515C3.94904 0.517515 2.40253 1.28874 1.36243 2.50365L1.74225 2.82882ZM9.60805 9.55651L9.22823 9.23134C8.37 10.2338 7.09688 10.8678 5.67515 10.8678V11.3678V11.8678C7.40125 11.8678 8.94776 11.0966 9.98787 9.88168L9.60805 9.55651ZM1.15346 0.5L0.653469 0.497769L0.648884 1.5254L1.14888 1.52764L1.64887 1.52987L1.65346 0.502231L1.15346 0.5ZM3.05333 3.43209L3.05556 3.93209L4.0832 3.9275L4.08097 3.42751L4.07874 2.92751L3.0511 2.9321L3.05333 3.43209ZM1.14888 1.52764L0.648884 1.5254C0.647108 1.92341 0.64483 2.26416 0.674835 2.53891C0.705937 2.82372 0.776835 3.10022 0.96489 3.34322L1.36031 3.0372L1.75573 2.73119C1.72687 2.6939 1.69022 2.62538 1.66892 2.43035C1.64653 2.22527 1.64699 1.95138 1.64887 1.52987L1.14888 1.52764ZM3.05333 3.43209L3.0511 2.9321C2.62959 2.93398 2.3557 2.93444 2.15062 2.91204C1.95559 2.89075 1.88707 2.8541 1.84978 2.82524L1.54377 3.22066L1.23775 3.61608C1.48075 3.80413 1.75725 3.87503 2.04206 3.90613C2.31681 3.93614 2.65756 3.93386 3.05556 3.93209L3.05333 3.43209ZM10.1552 11.8437L10.6552 11.8459L10.6598 10.8183L10.1598 10.8161L9.65979 10.8138L9.65521 11.8415L10.1552 11.8437ZM8.25533 8.91162L8.2531 8.41162L7.22546 8.41621L7.2277 8.9162L7.22993 9.4162L8.25756 9.41161L8.25533 8.91162ZM10.1598 10.8161L10.6598 10.8183C10.6616 10.4203 10.6638 10.0795 10.6338 9.8048C10.6027 9.51999 10.5318 9.24349 10.3438 9.00049L9.94836 9.30651L9.55294 9.61252C9.5818 9.64981 9.61844 9.71833 9.63974 9.91336C9.66214 10.1184 9.66167 10.3923 9.65979 10.8138L10.1598 10.8161ZM8.25533 8.91162L8.25756 9.41161C8.67908 9.40973 8.95297 9.40927 9.15805 9.43167C9.35307 9.45296 9.4216 9.48961 9.45889 9.51847L9.7649 9.12305L10.0709 8.72763C9.82792 8.53958 9.55141 8.46868 9.26661 8.43758C8.99186 8.40757 8.6511 8.40985 8.2531 8.41162L8.25533 8.91162ZM1.36031 3.0372L0.96489 3.34322C1.00466 3.39461 1.04764 3.44336 1.09354 3.48918L1.4468 3.13534L1.80007 2.7815C1.78425 2.76571 1.76944 2.74891 1.75573 2.73119L1.36031 3.0372ZM1.4468 3.13534L1.09354 3.48918C1.13885 3.53442 1.18701 3.57681 1.23775 3.61608L1.54377 3.22066L1.84978 2.82524C1.83228 2.8117 1.81568 2.79709 1.80007 2.7815L1.4468 3.13534ZM1.74225 2.82882L1.38225 2.48183L1.0868 2.78836L1.4468 3.13534L1.8068 3.48233L2.10225 3.1758L1.74225 2.82882ZM9.94836 9.30651L10.3438 9.00049C10.3093 8.95593 10.2724 8.91336 10.2333 8.87296L9.87407 9.22076L9.51485 9.56856C9.52833 9.58248 9.54105 9.59716 9.55294 9.61252L9.94836 9.30651ZM9.87407 9.22076L10.2333 8.87296C10.1827 8.82076 10.1285 8.77219 10.0709 8.72763L9.7649 9.12305L9.45889 9.51847C9.47874 9.53383 9.49743 9.55057 9.51485 9.56856L9.87407 9.22076ZM9.60805 9.55651L9.99994 9.86702L10.266 9.53127L9.87407 9.22076L9.48217 8.91025L9.21615 9.246L9.60805 9.55651Z" fill="white"/>
</svg>
