<svg width="18" height="18" viewBox="0 0 18 18" fill="none" xmlns="http://www.w3.org/2000/svg">
<path d="M6.18751 14.0629C6.18751 14.3612 6.06899 14.6474 5.85801 14.8584C5.64703 15.0693 5.36088 15.1879 5.06251 15.1879C4.76415 15.1879 4.478 15.0693 4.26702 14.8584C4.05604 14.6474 3.93751 14.3612 3.93751 14.0629M6.18751 14.0629C6.18751 13.7645 6.06899 13.4783 5.85801 13.2674C5.64703 13.0564 5.36088 12.9379 5.06251 12.9379C4.76415 12.9379 4.478 13.0564 4.26702 13.2674C4.05604 13.4783 3.93751 13.7645 3.93751 14.0629M6.18751 14.0629H10.6875M3.93751 14.0629H2.53126C2.30749 14.0629 2.09288 13.974 1.93464 13.8157C1.77641 13.6575 1.68751 13.4429 1.68751 13.2191V10.6879M10.6875 14.0629H12.375M10.6875 14.0629V10.6879M1.68751 10.6879V4.96161C1.68632 4.75624 1.76136 4.55772 1.89811 4.40449C2.03485 4.25126 2.22358 4.1542 2.42776 4.13211C4.92755 3.87263 7.44748 3.87263 9.94726 4.13211C10.371 4.17561 10.6875 4.53561 10.6875 4.96161V5.68011M1.68751 10.6879H10.6875M14.625 14.0629C14.625 14.3612 14.5065 14.6474 14.2955 14.8584C14.0845 15.0693 13.7984 15.1879 13.5 15.1879C13.2016 15.1879 12.9155 15.0693 12.7045 14.8584C12.4935 14.6474 12.375 14.3612 12.375 14.0629M14.625 14.0629C14.625 13.7645 14.5065 13.4783 14.2955 13.2674C14.0845 13.0564 13.7984 12.9379 13.5 12.9379C13.2016 12.9379 12.9155 13.0564 12.7045 13.2674C12.4935 13.4783 12.375 13.7645 12.375 14.0629M14.625 14.0629H15.4688C15.9345 14.0629 16.3155 13.6849 16.2863 13.2199C16.1356 10.7431 15.3014 8.35653 13.8765 6.32511C13.7408 6.13482 13.5636 5.97787 13.3583 5.86613C13.153 5.75439 12.925 5.69078 12.6915 5.68011H10.6875M10.6875 5.68011V10.6879" stroke="black" stroke-linecap="round" stroke-linejoin="round"/>
</svg>
