<svg width="34" height="34" viewBox="0 0 34 34" fill="none" xmlns="http://www.w3.org/2000/svg">
<rect width="34" height="34" rx="17" fill="#F0F0F0"/>
<path fill-rule="evenodd" clip-rule="evenodd" d="M17.473 7.98916C17.3453 7.86808 17.176 7.80059 17 7.80059C16.824 7.80059 16.6547 7.86808 16.527 7.98916C14.5812 9.83706 11.9896 10.8504 9.30642 10.8125C9.16025 10.8106 9.01727 10.8553 8.89825 10.9402C8.77924 11.0251 8.69038 11.1457 8.64459 11.2846C8.25773 12.4636 8.06124 13.6967 8.06251 14.9375C8.06251 20.3843 11.7878 24.9594 16.8286 26.2565C16.941 26.2855 17.059 26.2855 17.1714 26.2565C22.2122 24.9594 25.9375 20.3843 25.9375 14.9375C25.9375 13.6633 25.7331 12.435 25.3554 11.2846C25.3098 11.1456 25.221 11.0248 25.102 10.9397C24.9829 10.8546 24.8399 10.8097 24.6936 10.8116L24.5625 10.8125C21.8162 10.8125 19.3219 9.74 17.473 7.98916ZM20.3092 15.3372C20.3642 15.2639 20.404 15.1803 20.4262 15.0915C20.4485 15.0026 20.4527 14.9101 20.4387 14.8196C20.4248 14.729 20.3928 14.6422 20.3448 14.5641C20.2968 14.4861 20.2336 14.4185 20.1591 14.3652C20.0845 14.3119 20.0001 14.2741 19.9107 14.2539C19.8213 14.2337 19.7288 14.2316 19.6386 14.2477C19.5484 14.2638 19.4623 14.2977 19.3854 14.3475C19.3085 14.3974 19.2424 14.4621 19.1908 14.5378L16.2245 18.6903L14.7358 17.2017C14.6055 17.0802 14.4331 17.0141 14.255 17.0173C14.0769 17.0204 13.907 17.0925 13.781 17.2185C13.6551 17.3445 13.5829 17.5144 13.5798 17.6925C13.5766 17.8706 13.6427 18.043 13.7642 18.1733L15.8267 20.2358C15.8972 20.3064 15.9823 20.3607 16.076 20.395C16.1697 20.4293 16.2697 20.4429 16.3691 20.4347C16.4686 20.4265 16.565 20.3967 16.6518 20.3475C16.7386 20.2983 16.8136 20.2308 16.8717 20.1497L20.3092 15.3372Z" fill="#5260FE"/>
</svg>
