<svg width="34" height="24" viewBox="0 0 34 24" fill="none" xmlns="http://www.w3.org/2000/svg">
<path d="M0.000123999 12.8487V11.1564C0.000123999 10.4823 0.547545 9.93601 1.22292 9.93601H4.56092C4.60627 9.93601 4.65162 9.94895 4.69373 9.96026C5.71733 9.28946 6.87047 8.79807 8.10138 8.52489C7.71268 8.14827 7.46324 7.6181 7.46324 7.03456C7.46324 5.89178 8.39128 4.96558 9.53633 4.96558H16.1702C17.3153 4.96558 18.2433 5.89178 18.2433 7.03456C18.2433 7.71343 17.908 8.31311 17.4011 8.68974C17.9081 9.06636 18.2433 9.66605 18.2433 10.3449V16.5519H23.596C24.043 16.5519 24.4674 16.3773 24.7864 16.0589L25.8019 15.0454C26.2295 14.6187 26.3947 13.998 26.2327 13.4112L24.8852 7.96072C24.5127 6.44614 25.1055 4.91059 26.2651 4.00864C25.5897 3.76942 25.0666 3.19396 24.9225 2.48116L22.804 2.48277C22.5757 2.48277 22.3894 2.29689 22.3894 2.06898C22.3894 1.84107 22.5757 1.65518 22.804 1.65518H24.9192C25.1103 0.711232 25.9477 0 26.9502 0H29.4379C29.6663 0 29.8525 0.185885 29.8525 0.413795V3.72416C29.8525 3.95207 29.6663 4.13795 29.4379 4.13795H28.2896L30.1926 13.1508C30.2639 13.4531 30.2963 13.7635 30.3044 14.0738C31.5693 14.0819 32.7872 14.4666 33.8238 15.1907C34.01 15.3233 34.0554 15.5803 33.9274 15.7661C33.8481 15.8825 33.7201 15.9439 33.5873 15.9439C33.5047 15.9439 33.4221 15.9197 33.3509 15.8696C32.439 15.2311 31.375 14.8965 30.2671 14.8965H30.2542C30.1635 15.501 29.9562 16.0797 29.6403 16.6099C29.8444 16.5727 30.0517 16.5517 30.2671 16.5517C32.324 16.5517 33.9987 18.223 33.9987 20.2758C33.9987 22.3286 32.324 24 30.2671 24C28.2102 24 26.5356 22.3286 26.5356 20.2758C26.5356 20.2144 26.5437 20.1562 26.5437 20.0932C25.9217 20.4779 25.201 20.6896 24.4495 20.6896H12.4144C12.2071 22.5469 10.6231 24 8.70714 24C6.79115 24 5.20718 22.5469 4.99987 20.6896H0.414618C0.186255 20.6896 6.31087e-07 20.5037 6.31087e-07 20.2758V18.5964C6.31087e-07 16.9655 0.382229 15.4218 1.06084 14.0529C0.464829 13.9705 0.000123999 13.4646 0.000123999 12.8487ZM17.4141 7.03448C17.4141 6.35238 16.8537 5.79309 16.1702 5.79309H9.53633C8.85287 5.79309 8.29248 6.35238 8.29248 7.03448C8.29248 7.71658 8.85287 8.27587 9.53633 8.27587H16.1702C16.8537 8.27587 17.4141 7.71658 17.4141 7.03448ZM29.0234 0.82755H26.9503C26.2668 0.82755 25.7064 1.38684 25.7064 2.06894C25.7064 2.75104 26.2668 3.31032 26.9503 3.31032H29.0234V0.82755ZM30.2672 23.1725C31.8674 23.1725 33.1695 21.8729 33.1695 20.2759C33.1695 18.6789 31.8674 17.3794 30.2672 17.3794C29.6825 17.3794 29.1432 17.5539 28.6881 17.8513L27.59 19.1671C27.4443 19.5098 27.3649 19.8832 27.3649 20.2759C27.3649 21.8729 28.667 23.1725 30.2672 23.1725ZM26.8709 18.7325L26.8839 18.7195C27.1624 18.1231 27.5884 17.6139 28.1196 17.2389L28.5877 16.6797C29.3586 15.7567 29.6566 14.5121 29.3846 13.3321L27.4686 4.26588C26.1081 4.82028 25.321 6.30577 25.6854 7.77023L27.0329 13.2079C27.2693 14.0727 27.0199 15.0037 26.3867 15.6373L25.3712 16.6508C24.8983 17.1228 24.2682 17.383 23.5961 17.383L18.2434 17.3846V19.8674H24.4498C25.3876 19.8626 26.27 19.4485 26.8709 18.7325ZM8.70693 23.1725C10.1662 23.1725 11.3728 22.0927 11.5769 20.6897H5.83856C6.04101 22.0927 7.24764 23.1725 8.70693 23.1725ZM0.829195 19.8621H17.4139V10.3448C17.4139 9.66274 16.8535 9.10346 16.17 9.10346H10.3409C5.09519 9.10346 0.829195 13.361 0.829195 18.5963V19.8621ZM0.829195 12.8487C0.829195 13.0685 1.00735 13.2415 1.22276 13.2415H1.50457C2.07628 12.3056 2.79378 11.47 3.62787 10.7587H1.2276C1.00734 10.7587 0.834041 10.9365 0.834041 11.1515V12.8487L0.829195 12.8487ZM14.097 12.8277C14.097 12.5998 13.9107 12.4139 13.6823 12.4139H9.53616C9.3078 12.4139 9.12155 12.5998 9.12155 12.8277C9.12155 13.0556 9.3078 13.2415 9.53616 13.2415H13.6823C13.9107 13.2415 14.097 13.0556 14.097 12.8277ZM5.80461 16.1381C5.80461 16.366 5.99086 16.5519 6.21922 16.5519H13.6823C13.9107 16.5519 14.097 16.366 14.097 16.1381C14.097 15.9102 13.9107 15.7243 13.6823 15.7243H6.21922C5.99086 15.7243 5.80461 15.9102 5.80461 16.1381Z" fill="black"/>
</svg>
