<svg width="16" height="16" viewBox="0 0 16 16" fill="none" xmlns="http://www.w3.org/2000/svg">
<rect x="0.5" y="0.5" width="15" height="15" rx="7.5" fill="white"/>
<rect x="0.5" y="0.5" width="15" height="15" rx="7.5" stroke="#DFDFDF"/>
<g clip-path="url(#clip0_497_3142)">
<path d="M8.14289 11.4286C8.14289 11.7446 8.39825 12 8.71432 12C9.03039 12 9.28575 11.7446 9.28575 11.4286V4.57143C9.28575 4.25536 9.03039 4 8.71432 4C8.39825 4 8.14289 4.25536 8.14289 4.57143V11.4286ZM5.85718 11.4286C5.85718 11.7446 6.11253 12 6.42861 12C6.74468 12 7.00003 11.7446 7.00003 11.4286V4.57143C7.00003 4.25536 6.74468 4 6.42861 4C6.11253 4 5.85718 4.25536 5.85718 4.57143L5.85718 11.4286Z" fill="#DADADA"/>
</g>
<defs>
<clipPath id="clip0_497_3142">
<rect width="8" height="9.14286" fill="white" transform="translate(3 12) rotate(-90)"/>
</clipPath>
</defs>
</svg>
