<svg width="28" height="28" viewBox="0 0 28 28" fill="none" xmlns="http://www.w3.org/2000/svg">
<path d="M9.33333 10.4998H18.6667M9.33333 15.1665H16.3333M21 4.6665C21.9283 4.6665 22.8185 5.03525 23.4749 5.69163C24.1313 6.34801 24.5 7.23825 24.5 8.1665V17.4998C24.5 18.4281 24.1313 19.3183 23.4749 19.9747C22.8185 20.6311 21.9283 20.9998 21 20.9998H15.1667L9.33333 24.4998V20.9998H7C6.07174 20.9998 5.1815 20.6311 4.52513 19.9747C3.86875 19.3183 3.5 18.4281 3.5 17.4998V8.1665C3.5 7.23825 3.86875 6.34801 4.52513 5.69163C5.1815 5.03525 6.07174 4.6665 7 4.6665H21Z" stroke="black" stroke-linecap="round" stroke-linejoin="round"/>
</svg>
