<svg width="26" height="26" viewBox="0 0 26 26" fill="none" xmlns="http://www.w3.org/2000/svg">
<path fill-rule="evenodd" clip-rule="evenodd" d="M8.7815 2.76583C8.87141 2.58591 9.00963 2.43457 9.18068 2.32876C9.35173 2.22295 9.54887 2.16686 9.75 2.16675H16.25C16.4511 2.16686 16.6483 2.22295 16.8193 2.32876C16.9904 2.43457 17.1286 2.58591 17.2185 2.76583L19.0862 6.50008H21.6667C21.954 6.50008 22.2295 6.61422 22.4327 6.81738C22.6359 7.02055 22.75 7.2961 22.75 7.58341C22.75 7.87073 22.6359 8.14628 22.4327 8.34945C22.2295 8.55261 21.954 8.66675 21.6667 8.66675H20.5833V20.5834C20.5833 21.4454 20.2409 22.272 19.6314 22.8815C19.0219 23.491 18.1953 23.8334 17.3333 23.8334H8.66667C7.80471 23.8334 6.97806 23.491 6.36857 22.8815C5.75908 22.272 5.41667 21.4454 5.41667 20.5834V8.66675H4.33333C4.04602 8.66675 3.77047 8.55261 3.5673 8.34945C3.36414 8.14628 3.25 7.87073 3.25 7.58341C3.25 7.2961 3.36414 7.02055 3.5673 6.81738C3.77047 6.61422 4.04602 6.50008 4.33333 6.50008H6.91383L8.7815 2.76583ZM15.5805 4.33341L16.6638 6.50008H9.33617L10.4195 4.33341H15.5805ZM11.9167 11.9167C11.9167 11.6294 11.8025 11.3539 11.5994 11.1507C11.3962 10.9476 11.1207 10.8334 10.8333 10.8334C10.546 10.8334 10.2705 10.9476 10.0673 11.1507C9.86414 11.3539 9.75 11.6294 9.75 11.9167V18.4167C9.75 18.7041 9.86414 18.9796 10.0673 19.1828C10.2705 19.3859 10.546 19.5001 10.8333 19.5001C11.1207 19.5001 11.3962 19.3859 11.5994 19.1828C11.8025 18.9796 11.9167 18.7041 11.9167 18.4167V11.9167ZM16.25 11.9167C16.25 11.6294 16.1359 11.3539 15.9327 11.1507C15.7295 10.9476 15.454 10.8334 15.1667 10.8334C14.8793 10.8334 14.6038 10.9476 14.4006 11.1507C14.1975 11.3539 14.0833 11.6294 14.0833 11.9167V18.4167C14.0833 18.7041 14.1975 18.9796 14.4006 19.1828C14.6038 19.3859 14.8793 19.5001 15.1667 19.5001C15.454 19.5001 15.7295 19.3859 15.9327 19.1828C16.1359 18.9796 16.25 18.7041 16.25 18.4167V11.9167Z" fill="#FF0000"/>
</svg>
