<svg width="18" height="18" viewBox="0 0 18 18" fill="none" xmlns="http://www.w3.org/2000/svg">
<path d="M15.75 9C15.75 8.55245 15.5722 8.12323 15.2557 7.80676C14.9393 7.49029 14.5101 7.3125 14.0625 7.3125H11.25C11.25 7.90924 11.0129 8.48153 10.591 8.90349C10.169 9.32545 9.59674 9.5625 9 9.5625C8.40326 9.5625 7.83097 9.32545 7.40901 8.90349C6.98705 8.48153 6.75 7.90924 6.75 7.3125H3.9375C3.48995 7.3125 3.06072 7.49029 2.74426 7.80676C2.42779 8.12323 2.25 8.55245 2.25 9M15.75 9V13.5C15.75 13.9476 15.5722 14.3768 15.2557 14.6932C14.9393 15.0097 14.5101 15.1875 14.0625 15.1875H3.9375C3.48995 15.1875 3.06072 15.0097 2.74426 14.6932C2.42779 14.3768 2.25 13.9476 2.25 13.5V9M15.75 9V6.75M2.25 9V6.75M15.75 6.75C15.75 6.30245 15.5722 5.87323 15.2557 5.55676C14.9393 5.24029 14.5101 5.0625 14.0625 5.0625H3.9375C3.48995 5.0625 3.06072 5.24029 2.74426 5.55676C2.42779 5.87323 2.25 6.30245 2.25 6.75M15.75 6.75V4.5C15.75 4.05245 15.5722 3.62323 15.2557 3.30676C14.9393 2.99029 14.5101 2.8125 14.0625 2.8125H3.9375C3.48995 2.8125 3.06072 2.99029 2.74426 3.30676C2.42779 3.62323 2.25 4.05245 2.25 4.5V6.75" stroke="black" stroke-linecap="round" stroke-linejoin="round"/>
</svg>
